# xmcd CD database file
#
# Track frame offsets:
#	182
#	13720
#	28940
#	46092
#	61170
#	78722
#	95500
#	111607
#	127195
#	143715
#	162705
#	175780
#	194145
#	208412
#	228270
#	244050
#	260870
#	274087
#	293090
#	308000
#
# Disc length: 4304 seconds
#
# Revision: 0
# Processed by: cddbd v1.5.1PL2 Copyright (c) Steve Scherf et al.
# Submitted via: CDex 1.51
#
DISCID=3810ce14
DTITLE=Sarah Jory - The Early Years (20 classic Songs)
DYEAR=1993
DGENRE=Country
TTITLE0=Walk The Way The Wind Blows
TTITLE1=Somewhere Between
TTITLE2=I'll Leave This World Loving You
TTITLE3=Just Out Of Reach
TTITLE4=Why Me Lord
TTITLE5=Beyond The Point Of No Return
TTITLE6=Let Me Be There
TTITLE7=Dear God
TTITLE8=Always Have,  Always Will
TTITLE9=How Great Thou Art
TTITLE10=Jones On The Jukebox
TTITLE11=Before I'm Over You
TTITLE12=Just Because I'm A woman
TTITLE13=Faded Love
TTITLE14=It Is No Secret (What God Can Do)
TTITLE15=No Time At All
TTITLE16=Funny Face
TTITLE17=Yesterday Just Passed My Way Again
TTITLE18=Beneath Still Waters
TTITLE19=The Old Rugged Cross
EXTD=YEAR: 1993
EXTT0=
EXTT1=
EXTT2=
EXTT3=
EXTT4=
EXTT5=
EXTT6=
EXTT7=
EXTT8=
EXTT9=
EXTT10=
EXTT11=
EXTT12=
EXTT13=
EXTT14=
EXTT15=
EXTT16=
EXTT17=
EXTT18=
EXTT19=
PLAYORDER=
